#!OML:ASF F:\VICON\USERDATA\INSTALL\rory3\rory3.ASF
:FULLY-SPECIFIED
:DEGREES
57
root -0.6311855371293902 18.398041709502895 20.98146774112368 3.8553840081249846 3.4368037527670396 -3.120860864368597
lfemur -43.77798641208343 1.8416724776575193 -19.3576165509213
ltibia 62.48075195309037
lfoot -0.02126265272003547 -13.748656156215256
ltoes -18.066676972455824
rfemur 18.790425281337008 8.31408057625173 31.86675136195674
rtibia 35.21119132610289
rfoot 27.514220379930734 -6.317966157271467
rtoes 7.936900033008465
lowerback 1.0 2.4179152013495444 6.16123637850226
upperback -1.359970562596003 4.332246552163801 0.921516672803025
thorax -8.743626528979084 1.8683743110334385 -3.209642100653752
lowerneck -18.570263162672827 -6.08605794908 -1.5975125498671952
upperneck 14.345090453887147 -8.600853611724947 2.4044998556688184
head 7.731717597469991 -3.9107069967843247 0.16286183335151155
lclavicle 3.923621870170928e-15 1.1171802539759172e-15
lhumerus -62.16420011251443 -5.0590104952618775 93.35287293463955
lradius 95.06601766354487
lwrist 36.44335095683773
lhand -28.75542335828517 -2.6076177467171453
lfingers 7.12502
lthumb -2.1051841206292647 29.0970843727376
rclavicle 3.340332476953175e-15 1.0756121035095561e-15
rhumerus -32.3794005678282 15.957317934888763 -92.80853919372461
rradius 118.72876616407822
rwrist -19.741753168605374
rhand -18.02171202782321 1.0
rfingers 7.12502
rthumb 7.254400594922174 13.010420426479161
58
root -0.6256869529590425 18.44725689131866 21.795496728629914 3.8498886003256234 3.5635613611430914 -3.5383167867768477
lfemur -42.070768495441655 1.4859919503067938 -19.27559655974618
ltibia 52.078355411815245
lfoot 2.0772648564758858 -16.154215181965046
ltoes -17.458756564933047
rfemur 18.631298817156413 9.952011616671168 33.03993550741359
rtibia 38.453475963240166
rfoot 28.89774064897261 -6.931093038502481
rtoes 9.497308158733471
lowerback 1.0 2.5324583215488428 6.3523965305836825
upperback -1.4555202574203867 4.466060600263806 0.8479910908235242
thorax -8.638312322332277 1.9428588999949719 -3.248060909616913
lowerneck -18.47533688216777 -6.1105323160928195 -1.63512985193032
upperneck 14.50381182012302 -8.664850622421378 2.5119190559673354
head 7.777195175621061 -3.93233202470634 0.19113499563626407
lclavicle 3.797379466337857e-15 9.823035682218564e-16
lhumerus -61.87758722837968 -4.88633768769957 93.26986665576868
lradius 96.41422283793023
lwrist 36.44348288986272
lhand -29.022332631992466 -2.4951602980297602
lfingers 7.12502
lthumb -2.0673489298565793 29.416873533214996
rclavicle 3.223836338043904e-15 9.444836223235049e-16
rhumerus -32.751716421531334 16.512104681650236 -92.94063147280332
rradius 119.41833547937257
rwrist -19.29556217396803
rhand -18.003096124733293 1.0
rfingers 7.12502
rthumb 7.237807949564807 13.250402654317728
59
root -0.6231310166096868 18.46353496406973 23.133873985799163 3.744503812162922 3.4118805734003526 -3.612618149174826
lfemur -40.187704141379115 1.2816893365675865 -19.418249248441633
ltibia 42.92396924211745
lfoot 5.381532040869187 -16.72308269995965
ltoes -16.800490138414713
rfemur 17.570216578395893 10.978394720670575 33.55051349892799
rtibia 43.78082638222567
rfoot 28.292084025490873 -7.636645084091159
rtoes 8.784869885430927
lowerback 1.0 2.643621036819351 6.202467902578134
upperback -1.3625736833131603 4.568348875193058 0.8364713109065174
thorax -8.516034604972846 2.0023291205609777 -3.172636147843448
lowerneck -18.510091381130376 -6.109280792669853 -1.659053447119991
upperneck 14.529544703052672 -8.674766940768462 2.6386937171218166
head 7.783553398587055 -3.9268604371627727 0.22990424472515952
lclavicle 4.097098422765832e-15 1.821308242511524e-15
lhumerus -61.34196953720218 -4.839984462683332 93.2696413035867
lradius 97.80030717790409
lwrist 36.457580595249304
lhand -29.268431648124928 -2.269755815590603
lfingers 7.12502
lthumb -2.1882982537833713 29.039744368365366
rclavicle 3.419960158230705e-15 1.6710653286249567e-15
rhumerus -33.13838040346723 17.078806651624415 -93.12655031324637
rradius 119.76937331107848
rwrist -18.98216704673315
rhand -18.06834609060562 1.0
rfingers 7.12502
rthumb 7.161534335318558 13.301595805099558
60
root -0.6485471807985634 18.42961407427985 24.160010781159126 3.484194488817431 3.431733428771825 -3.447238481716779
lfemur -38.00050234103999 1.13547958023521 -19.708598689105564
ltibia 35.516180795907104
lfoot 7.541085850877778 -15.76751528823048
ltoes -17.7296085169929
rfemur 15.71629154734964 10.843161995157981 33.37830562242901
rtibia 50.93658768503511
rfoot 26.91962718374343 -8.780734050689706
rtoes 7.953245107447616
lowerback 1.0 2.6575597742956982 5.753810286264151
upperback -1.2010263484424142 4.556805565919231 0.8363544128113997
thorax -8.437934515185534 2.0011138070533896 -3.0473612917710704
lowerneck -18.506482166376976 -6.065977749519628 -1.6682548446679324
upperneck 14.423993199291063 -8.62014303072971 2.793421774059644
head 7.756696791728592 -3.8921665001338024 0.2800176554948538
lclavicle 2.9772090242969304e-15 3.51203602619458e-15
lhumerus -60.32770033107066 -4.897915945519335 93.37359230369631
lradius 98.90658818904895
lwrist 36.48027668544568
lhand -29.410699252427744 -2.26018884361614
lfingers 7.12502
lthumb -2.205897272576344 29.11823071324849
rclavicle 1.638355242017657e-15 3.0328086889053655e-15
rhumerus -33.5612994790601 17.584315868028334 -93.36593169375085
rradius 119.79632975918177
rwrist -18.879151505432063
rhand -18.070488340744557 1.0
rfingers 7.12502
rthumb 7.157694599235516 13.304758244445177
61
root -0.6894119768344105 18.333155856199742 24.739820144254843 3.020151444271272 3.8564942898900414 -3.0730817420129757
lfemur -35.749397008360205 0.9510505886665701 -20.189554827830676
ltibia 30.493345754031512
lfoot 9.69835258147668 -14.03220876468837
ltoes -19.513081835127743
rfemur 13.790672122925978 9.556191144963684 32.64950372863658
rtibia 59.33929526908589
rfoot 25.549456925818586 -10.276615753162206
rtoes 7.187130147127671
lowerback 1.0 2.5306878732158715 5.13075507026469
upperback -0.964517085338755 4.349203938836931 0.7867875814876288
thorax -8.398533446503748 1.9244299982564326 -2.82032155051779
lowerneck -18.55896415065367 -6.078736276664785 -1.7084599898778172
upperneck 14.27486002936921 -8.64474502860435 2.9939813238893174
head 7.709298511174872 -3.8800560779509548 0.34386115549219953
lclavicle 1.2646867489915143e-18 1.3251948365580767e-15
lhumerus -59.1158561900664 -5.21009159369023 93.50024218404124
lradius 99.85863190285124
lwrist 36.28293321383416
lhand -29.40073070567549 -2.3523358820924365
lfingers 7.12502
lthumb -2.2503479449083748 28.939962233053677
rclavicle -8.048141442855078e-17 1.268977693575459e-15
rhumerus -34.04112060069438 17.949706927481408 -93.64661938318497
rradius 119.4980487603708
rwrist -18.953890442217542
rhand -18.095991096106946 1.0
rfingers 7.12502
rthumb 7.150947034294196 13.1081410931637
62
root -0.748637116376917 18.16252389024716 24.50194840663603 2.428390637258465 4.272440668362016 -2.8181248755720842
lfemur -33.91288241432591 1.0014583674760313 -20.65049209367897
ltibia 28.403252560715032
lfoot 11.185583757394792 -13.42895333925461
ltoes -20.824001136226535
rfemur 11.464243089479217 7.602688058646042 31.670888910569975
rtibia 68.62120192241258
rfoot 24.40512925327192 -11.723001559543158
rtoes 6.308499669895584
lowerback 1.0 2.3939196318312828 4.547974623683646
upperback -0.6856512508291613 4.109206732318874 0.7444994842322725
thorax -8.404640876123205 1.826465284808461 -2.520714985190245
lowerneck -18.576534870295767 -6.023163078790358 -1.7210162276498913
upperneck 14.049489381237123 -8.582279065997147 3.206296309980886
head 7.65326606099664 -3.8277253766655495 0.41309594402812877
lclavicle -2.225389333130405e-15 -1.4582319424973602e-15
lhumerus -57.62645216782131 -5.733049941885122 93.64765921625735
lradius 100.62502042391081
lwrist 36.04492762664119
lhand -29.26345730240777 -1.8236727829361596
lfingers 7.12502
lthumb -2.20412675868956 29.427652958113622
rclavicle -2.122738754202113e-15 -1.6540313210056087e-15
rhumerus -34.66028143565696 18.102094630065174 -93.96797275720901
rradius 118.92574187167912
rwrist -19.12535333861159
rhand -18.146126242506984 1.0
rfingers 7.12502
rthumb 7.1890708087590305 12.932779877447974
63
root -0.8036842525359477 17.96787537700926 25.222925141596612 1.9000377375977693 4.80830865188165 -2.2620590742033633
lfemur -32.56780942363658 1.1206662100794547 -21.405118913625003
ltibia 29.517988222211805
lfoot 10.986048113404404 -14.873673795638435
ltoes -18.148260862281823
rfemur 8.505741454869385 5.2527440857687235 30.078482277145692
rtibia 78.17775666467938
rfoot 23.0195115754744 -12.901806641771689
rtoes 6.505258698811636
lowerback 1.0 2.2118392234444912 3.69756212125886
upperback -0.3700550563938043 3.781986978892249 0.6580256164817696
thorax -8.441983065529767 1.681287882469262 -2.141963924104097
lowerneck -18.647596906609955 -5.998040818177357 -1.73498604407794
upperneck 13.844671210735756 -8.574706330481675 3.434984876196173
head 7.608597589047004 -3.7940617676472477 0.4835080488340364
lclavicle -2.0011712886727205e-16 1.1865582545011749e-15
lhumerus -56.001934498154334 -6.468724781879738 93.71849523020472
lradius 101.2633077585595
lwrist 35.93652106007465
lhand -29.41603938763076 -1.5068078133105258
lfingers 7.12502
lthumb -2.268265010895408 30.144783830630008
rclavicle -1.9423061368072437e-16 9.515607374691529e-16
rhumerus -35.433978669756804 18.031821218273798 -94.33628297080739
rradius 118.09832948931137
rwrist -19.261113008719985
rhand -18.20832753632213 1.0
rfingers 7.12502
rthumb 7.1289978555259275 12.585627988625175
64
root -0.8701210163657467 17.743376644568922 25.967890810583505 1.460597818711725 5.377343740554204 -1.354352666391945
lfemur -31.640169175054893 1.3090125703046236 -22.484459304623055
ltibia 33.355453390170766
lfoot 7.437223616542593 -17.335193157784758
ltoes -11.920366840480089
rfemur 4.819076916833319 2.564336561939349 27.717585716085516
rtibia 87.61703329841203
rfoot 21.372277208930296 -13.66152810394808
rtoes 9.559150898699691
lowerback 1.0 2.003336763849352 2.493430465966082
upperback -0.10559356649360968 3.300839182245288 0.3744541287622969
thorax -8.548769073630522 1.4857698961721741 -1.670105201269228
lowerneck -18.72060040781517 -5.933532243455773 -1.7141306233653648
upperneck 13.636040824870527 -8.526408038918891 3.651042575811086
head 7.56160966359733 -3.7433376168223758 0.5500412058954901
lclavicle 1.8283137947301153e-15 4.2252754474001416e-15
lhumerus -54.26834861766888 -7.27093548758997 93.7000719270975
lradius 101.76472771910646
lwrist 35.89370773203323
lhand -29.54607024190249 -0.9586741172978215
lfingers 7.12502
lthumb -2.380149000206536 30.56057219841187
rclavicle 2.305720712994409e-15 3.894844517084516e-15
rhumerus -36.334770093949984 17.746201543910416 -94.73298926926375
rradius 117.04880427192448
rwrist -19.276322166666098
rhand -18.251946122805652 1.0
rfingers 7.12502
rthumb 7.108346219708193 12.316087900615148
